<svg xmlns="http://www.w3.org/2000/svg" xmlns:xlink="http://www.w3.org/1999/xlink" viewBox="0 0 254.56 92.35"><defs><style>.a,.d{stroke:#fff;stroke-miterlimit:10;}.a{stroke-width:0.66px;fill:url(#a);}.b{fill:#fff;}.c{fill:#0a015b;}.d{stroke-width:0.16px;fill:url(#c);}</style><radialGradient id="a" cx="37.26" cy="118.75" r="101.88" gradientUnits="userSpaceOnUse"><stop offset="0" stop-color="#ff9b39"/><stop offset="1" stop-color="#f66a00"/></radialGradient><radialGradient id="c" cx="1951.56" cy="2058.63" r="0.23" gradientTransform="translate(-60353.36 -63741.32) rotate(-0.01) scale(30.99)" xlink:href="#a"/></defs><path class="a" d="M82.06,13a16.4,16.4,0,0,0-5.84-1.06H27A16.47,16.47,0,0,0,10.52,28.38V75.54A16,16,0,0,0,11,79.36,16.45,16.45,0,0,1,.33,64V16.8A16.47,16.47,0,0,1,16.81.33H66A16.47,16.47,0,0,1,82.06,13Z"/><path class="a" d="M92.69,28.4V75.55A16.47,16.47,0,0,1,76.21,92H27A16.46,16.46,0,0,1,11,79.36a16,16,0,0,1-.45-3.82V28.38A16.47,16.47,0,0,1,27,11.91H76.22A16.44,16.44,0,0,1,92.69,28.4Z"/><path class="b" d="M42.33,29.28H32.27l.84,3.29L19.68,75.46h7.55L31,62.68H44.42L48.2,75.46h8.38Zm-9.65,26,5-19.79,5.87,19.8Z"/><path class="b" d="M85,42a14.28,14.28,0,0,0-3.16-8.83c-4-4.69-10.14-4.82-10.82-4.83h-.18c-8.58,0-10.86.14-14.14.17Q56.6,52,56.52,75.47l7.63,0,0-16.95a27.24,27.24,0,0,0,3.16,0c3.83-.22,9.91-.57,14-5S85.05,43.36,85,42Zm-9.72,6.71c-1.75,2-4.36,2.42-6,2.67a13.4,13.4,0,0,1-4.89-.15V35.8c4.9-1.46,9.78.45,11.66,4.1A8.26,8.26,0,0,1,75.27,48.73Z"/><path class="c" d="M99.66,64.85h9l-.52,4.05h-9Z"/><path class="c" d="M115.08,52.12h4.85a15.83,15.83,0,0,1,5.68.73,5.75,5.75,0,0,1,2.74,2.35,7.26,7.26,0,0,1,1,3.9A6.53,6.53,0,0,1,128,63.28a6.84,6.84,0,0,1-3.57,2.32,20.64,20.64,0,0,1-4.82.37V76.15h-4.57Zm4.57,9.39h1.46a8,8,0,0,0,2.38-.24,2.21,2.21,0,0,0,1.06-.81,2.45,2.45,0,0,0,.38-1.37,2.18,2.18,0,0,0-1.08-2,6.08,6.08,0,0,0-2.91-.48h-1.29Z"/><path class="c" d="M165.27,56.34l-3.2,3a9.89,9.89,0,0,0-7.34-3.45,8.06,8.06,0,0,0-8.16,8.16,8.65,8.65,0,0,0,1,4.27,7.43,7.43,0,0,0,3,2.92,8.53,8.53,0,0,0,4.24,1.07,8.68,8.68,0,0,0,3.64-.75,12.73,12.73,0,0,0,3.62-2.7l3.1,3.23a16.84,16.84,0,0,1-5,3.61,13.72,13.72,0,0,1-5.4,1,12.8,12.8,0,0,1-11.12-19,12.14,12.14,0,0,1,4.66-4.49,13,13,0,0,1,6.52-1.7,13.8,13.8,0,0,1,10.47,4.82Z"/><path class="c" d="M183.15,52.12h4.59V67.66a8.18,8.18,0,0,0,.35,2.84,2.87,2.87,0,0,0,1.16,1.33,3.68,3.68,0,0,0,2,.49,3.82,3.82,0,0,0,2.08-.55,3,3,0,0,0,1.21-1.41,10.61,10.61,0,0,0,.33-3.27v-15h4.59V66.45a20.93,20.93,0,0,1-.41,5,7.11,7.11,0,0,1-1.56,2.71,7.27,7.27,0,0,1-2.65,1.93,9,9,0,0,1-3.5.63,8.46,8.46,0,0,1-4.55-1.2,6.94,6.94,0,0,1-2.76-3,15.78,15.78,0,0,1-.84-6.1Z"/><path class="c" d="M133.5,57.19H138v19H133.5Z"/><path class="c" d="M166.9,52.12h13.28v4.51H175.8V76.15h-4.63V56.63H166.9Z"/><path class="c" d="M205,52.12h4.84a16.07,16.07,0,0,1,5.67.71,5.85,5.85,0,0,1,2.72,2.36,7.28,7.28,0,0,1,1,3.91,6.66,6.66,0,0,1-1.14,4,7,7,0,0,1-3.42,2.41l5.69,10.68h-5L210,66h-.42V76.15H205Zm4.57,9.39H211a5.64,5.64,0,0,0,3-.57,2.15,2.15,0,0,0,.82-1.9,2.34,2.34,0,0,0-.41-1.37,2.23,2.23,0,0,0-1.09-.84,8.61,8.61,0,0,0-2.51-.25h-1.25Z"/><path class="c" d="M224.15,52.12h13.11V56.6h-8.57v4.34h8.57v4.39h-8.57v6.33h8.57v4.49H224.15Z"/><path class="c" d="M254.13,55.39l-3.38,3q-1.78-2.49-3.64-2.49a2.21,2.21,0,0,0-1.47.49,1.4,1.4,0,0,0-.57,1.08,1.82,1.82,0,0,0,.41,1.15,31.59,31.59,0,0,0,3.35,3.08c1.75,1.46,2.8,2.38,3.17,2.76a9.6,9.6,0,0,1,2,2.69,6.81,6.81,0,0,1,.58,2.8,6.39,6.39,0,0,1-2.05,4.88,7.43,7.43,0,0,1-5.33,1.93,7.91,7.91,0,0,1-4.47-1.26,9.87,9.87,0,0,1-3.26-3.95l3.84-2.32c1.16,2.12,2.49,3.19,4,3.19a2.91,2.91,0,0,0,2-.69,2,2,0,0,0,.81-1.58,2.78,2.78,0,0,0-.61-1.64,17.72,17.72,0,0,0-2.67-2.5,27.2,27.2,0,0,1-5.07-4.94,6.28,6.28,0,0,1-1.14-3.47,5.66,5.66,0,0,1,1.9-4.28,6.58,6.58,0,0,1,4.7-1.79,7.51,7.51,0,0,1,3.43.83A12.56,12.56,0,0,1,254.13,55.39Z"/><rect class="d" x="133.49" y="51.91" width="4.56" height="4.45" rx="0.58" transform="matrix(-1, 0, 0, -1, 271.53, 108.29)"/></svg>