<svg xmlns="http://www.w3.org/2000/svg" xmlns:xlink="http://www.w3.org/1999/xlink" viewBox="0 0 184.64 66.98"><defs><style>.cls-1,.cls-3{stroke:#fff;stroke-miterlimit:10;}.cls-1{stroke-width:0.48px;fill:url(#radial-gradient);}.cls-2{fill:#fff;}.cls-3{stroke-width:0.12px;fill:url(#radial-gradient-3);}</style><radialGradient id="radial-gradient" cx="27.02" cy="86.13" r="73.89" gradientUnits="userSpaceOnUse"><stop offset="0" stop-color="#f89b3d"/><stop offset="1" stop-color="#f36c21"/></radialGradient><radialGradient id="radial-gradient-3" cx="1274.79" cy="1553.54" r="0.17" gradientTransform="matrix(30.99, 0, 0, 30.99, -39414.8, -48104.68)" xlink:href="#radial-gradient"/></defs><g id="Layer_2" data-name="Layer 2"><g id="Layer_1-2" data-name="Layer 1"><path class="cls-1" d="M59.52,9.42a12,12,0,0,0-4.24-.78H19.58a12,12,0,0,0-11.95,12v34.2A12.07,12.07,0,0,0,8,57.56,11.94,11.94,0,0,1,.24,46.39V12.19A12,12,0,0,1,12.2.24H47.9A12,12,0,0,1,59.52,9.42Z"/><path class="cls-1" d="M67.23,20.6V54.8A11.93,11.93,0,0,1,55.27,66.74H19.57A12,12,0,0,1,8,57.56a12.07,12.07,0,0,1-.33-2.77V20.59a12,12,0,0,1,12-11.95h35.7a12,12,0,0,1,12,12Z"/><g id="AP_FULL" data-name="AP FULL"><path class="cls-2" d="M30.7,21.24H23.4l.61,2.4-9.74,31.1h5.48l2.74-9.27h9.73L35,54.73H41Zm-7,18.84,3.65-14.36,4.25,14.36Z"/><path class="cls-2" d="M61.64,30.47a10.32,10.32,0,0,0-2.29-6.39,11,11,0,0,0-7.85-3.51h-.12c-6.23,0-7.88.1-10.26.12q-.06,17-.13,34.05l5.54,0q0-6.15,0-12.3a17.18,17.18,0,0,0,2.29,0C51.62,42.26,56,42,59,38.8S61.69,31.45,61.64,30.47Zm-7,4.87a6.74,6.74,0,0,1-4.34,1.94,9.87,9.87,0,0,1-3.55-.11V26c3.54-1.06,7.09.33,8.45,3A6,6,0,0,1,54.59,35.34Z"/></g><path class="cls-2" d="M72.28,47H78.8L78.43,50H71.9Z"/><path class="cls-2" d="M83.47,37.81H87a11.71,11.71,0,0,1,4.12.52,4.19,4.19,0,0,1,2,1.71,5.3,5.3,0,0,1,.72,2.82,4.74,4.74,0,0,1-.95,3,5,5,0,0,1-2.59,1.68,15,15,0,0,1-3.49.27v7.38H83.47Zm3.32,6.81h1a5.63,5.63,0,0,0,1.73-.18,1.57,1.57,0,0,0,.77-.59,1.74,1.74,0,0,0,.27-1,1.59,1.59,0,0,0-.78-1.48A4.47,4.47,0,0,0,87.72,41h-.93Z"/><path class="cls-2" d="M119.87,40.87l-2.32,2.21a7.15,7.15,0,0,0-5.32-2.5,5.82,5.82,0,0,0-5.92,5.91,6.17,6.17,0,0,0,.76,3.1,5.39,5.39,0,0,0,2.14,2.12,6.15,6.15,0,0,0,3.08.77,6.36,6.36,0,0,0,2.64-.54,9.43,9.43,0,0,0,2.62-2l2.25,2.35a12.37,12.37,0,0,1-3.65,2.61,9.86,9.86,0,0,1-3.92.73,9.28,9.28,0,0,1-8.06-13.81,8.77,8.77,0,0,1,3.38-3.26,9.51,9.51,0,0,1,4.73-1.23,10,10,0,0,1,7.59,3.5Z"/><path class="cls-2" d="M132.84,37.81h3.33V49.07a5.8,5.8,0,0,0,.26,2.06,2,2,0,0,0,.84,1,2.65,2.65,0,0,0,1.42.36,2.86,2.86,0,0,0,1.51-.4,2.1,2.1,0,0,0,.87-1,7.64,7.64,0,0,0,.24-2.37V37.81h3.33V48.19a15.54,15.54,0,0,1-.29,3.65,5.29,5.29,0,0,1-1.13,2,5.23,5.23,0,0,1-1.93,1.4,6.42,6.42,0,0,1-2.53.46,6.11,6.11,0,0,1-3.3-.87,5,5,0,0,1-2-2.18,11.55,11.55,0,0,1-.61-4.43Z"/><path class="cls-2" d="M96.83,41.48h3.3V55.23h-3.3Z"/><path class="cls-2" d="M121.06,37.81h9.63v3.26h-3.18V55.23h-3.36V41.07h-3.09Z"/><path class="cls-2" d="M148.72,37.81h3.51a11.67,11.67,0,0,1,4.11.51,4.13,4.13,0,0,1,2,1.71,5.22,5.22,0,0,1,.75,2.83,4.83,4.83,0,0,1-.82,2.88,5,5,0,0,1-2.48,1.74l4.12,7.75h-3.62l-3.92-7.38H152v7.38h-3.32ZM152,44.62h1a4,4,0,0,0,2.18-.42,1.57,1.57,0,0,0,.6-1.38,1.67,1.67,0,0,0-1.09-1.6,6.1,6.1,0,0,0-1.82-.18H152Z"/><path class="cls-2" d="M162.58,37.81h9.51v3.24h-6.22V44.2h6.22v3.19h-6.22V52h6.22v3.26h-9.51Z"/><path class="cls-2" d="M184.33,40.17l-2.46,2.17a3.48,3.48,0,0,0-2.63-1.8,1.6,1.6,0,0,0-1.07.35,1,1,0,0,0-.42.79,1.35,1.35,0,0,0,.3.83,23,23,0,0,0,2.43,2.24c1.27,1.06,2,1.72,2.3,2a6.79,6.79,0,0,1,1.43,2,4.86,4.86,0,0,1,.43,2,4.65,4.65,0,0,1-1.49,3.54,5.4,5.4,0,0,1-3.86,1.4,5.84,5.84,0,0,1-3.25-.91,7.2,7.2,0,0,1-2.36-2.87l2.79-1.68c.83,1.54,1.8,2.31,2.89,2.31a2.16,2.16,0,0,0,1.44-.5,1.49,1.49,0,0,0,.58-1.15,2,2,0,0,0-.44-1.18A12.5,12.5,0,0,0,179,47.87a19.34,19.34,0,0,1-3.67-3.58,4.5,4.5,0,0,1-.83-2.52,4.14,4.14,0,0,1,1.38-3.11,4.79,4.79,0,0,1,3.41-1.29,5.4,5.4,0,0,1,2.48.6A9.09,9.09,0,0,1,184.33,40.17Z"/><rect class="cls-3" x="96.82" y="37.65" width="3.31" height="3.22" rx="0.42" transform="matrix(-1, 0, 0, -1, 196.94, 78.54)"/></g></g></svg>