<svg xmlns="http://www.w3.org/2000/svg" viewBox="0 0 94.41 23.43"><defs><style>.a{opacity:0.01;}.b{fill:#4b94d0;}.c{fill:#fee8d9;stroke:#fff;stroke-miterlimit:10;stroke-width:0.16px;opacity:0.51;}</style></defs><g class="a"><path class="b" d="M94.41.39a.39.39,0,0,0,0-.78.39.39,0,0,0,0,.78Z"/></g><g class="a"><path class="b" d="M94,23.38v.06a.4.4,0,0,0,0,.15.33.33,0,0,0,.21.21.4.4,0,0,0,.15,0h.1a.4.4,0,0,0,.18-.1l.06-.08a.46.46,0,0,0,0-.2v-.06a.4.4,0,0,0,0-.15.25.25,0,0,0-.08-.12.26.26,0,0,0-.13-.08.28.28,0,0,0-.15,0l-.1,0a.32.32,0,0,0-.18.1l-.06.08a.41.41,0,0,0,0,.19Z"/></g><g class="a"><path class="b" d="M-.39,23.36v.05a.33.33,0,0,0,0,.15.35.35,0,0,0,.08.13.35.35,0,0,0,.13.08.27.27,0,0,0,.15,0H.1a.4.4,0,0,0,.18-.1l.06-.08a.46.46,0,0,0,0-.2v-.05a.41.41,0,0,0,0-.16.32.32,0,0,0-.08-.12A.26.26,0,0,0,.15,23,.28.28,0,0,0,0,23l-.1,0a.4.4,0,0,0-.18.1l-.06.08a.42.42,0,0,0,0,.2Z"/></g><g class="a"><path class="b" d="M0,.42H.06a.4.4,0,0,0,.15,0A.36.36,0,0,0,.33.31.26.26,0,0,0,.41.18.28.28,0,0,0,.45,0l0-.11a.33.33,0,0,0-.1-.17L.25-.31a.32.32,0,0,0-.19,0H0a.27.27,0,0,0-.15,0,.35.35,0,0,0-.13.08.35.35,0,0,0-.08.13A.33.33,0,0,0-.39,0v.1a.4.4,0,0,0,.1.18L-.2.37a.46.46,0,0,0,.2,0Z"/></g><path class="c" d="M3,4.1H6.11a10,10,0,0,1,3.59.46,3.56,3.56,0,0,1,1.74,1.49,4.62,4.62,0,0,1,.64,2.46,4.1,4.1,0,0,1-.84,2.65A4.24,4.24,0,0,1,9,12.63a12.85,12.85,0,0,1-3.05.24v6.44H3Zm2.9,6h.92a5,5,0,0,0,1.51-.16A1.37,1.37,0,0,0,9,9.38a1.53,1.53,0,0,0,.24-.87,1.4,1.4,0,0,0-.68-1.29,3.91,3.91,0,0,0-1.84-.3H5.93Z"/><path class="c" d="M34.82,6.77l-2,1.93a6.3,6.3,0,0,0-4.65-2.18A5.09,5.09,0,0,0,23,11.69a5.45,5.45,0,0,0,.66,2.7,4.75,4.75,0,0,0,1.87,1.85,5.79,5.79,0,0,0,5,.2,8.17,8.17,0,0,0,2.3-1.71l2,2.05a10.6,10.6,0,0,1-3.19,2.28,8.76,8.76,0,0,1-3.42.64,7.9,7.9,0,0,1-5.81-2.25,7.83,7.83,0,0,1-2.26-5.77,7.91,7.91,0,0,1,1-4,7.71,7.71,0,0,1,2.95-2.85,8.3,8.3,0,0,1,4.13-1.08,8.78,8.78,0,0,1,6.63,3.06Z"/><path class="c" d="M46.15,4.1h2.91v9.84a5.11,5.11,0,0,0,.22,1.8,1.8,1.8,0,0,0,.73.84,2.33,2.33,0,0,0,1.24.31,2.37,2.37,0,0,0,1.32-.35,1.81,1.81,0,0,0,.76-.89,6.29,6.29,0,0,0,.22-2.07V4.1h2.9v9.07a12.83,12.83,0,0,1-.26,3.19,4.53,4.53,0,0,1-1,1.71,4.74,4.74,0,0,1-1.68,1.23,5.86,5.86,0,0,1-2.22.4,5.43,5.43,0,0,1-2.88-.76A4.38,4.38,0,0,1,46.68,17a10.06,10.06,0,0,1-.53-3.86Z"/><rect class="c" x="14.7" y="7.31" width="2.88" height="12"/><polygon class="c" points="35.86 4.1 44.27 4.1 44.27 6.95 41.49 6.95 41.49 19.31 38.56 19.31 38.56 6.95 35.86 6.95 35.86 4.1"/><path class="c" d="M60,4.1h3.07a10.13,10.13,0,0,1,3.59.45A3.7,3.7,0,0,1,68.39,6,4.53,4.53,0,0,1,69,8.51,4.21,4.21,0,0,1,68.32,11a4.36,4.36,0,0,1-2.16,1.53l3.6,6.76H66.6l-3.43-6.44h-.26v6.44H60Zm2.9,6h.91a3.55,3.55,0,0,0,1.9-.37,1.35,1.35,0,0,0,.52-1.2A1.51,1.51,0,0,0,66,7.61a1.46,1.46,0,0,0-.69-.53,5.18,5.18,0,0,0-1.59-.16h-.79Z"/><polygon class="c" points="72.11 4.1 80.42 4.1 80.42 6.93 74.99 6.93 74.99 9.68 80.42 9.68 80.42 12.47 74.99 12.47 74.99 16.47 80.42 16.47 80.42 19.31 72.11 19.31 72.11 4.1"/><path class="c" d="M91.11,6.17,89,8.06a3,3,0,0,0-2.3-1.57,1.4,1.4,0,0,0-.93.3.91.91,0,0,0-.36.69,1.15,1.15,0,0,0,.25.72,19.76,19.76,0,0,0,2.13,2c1.1.92,1.77,1.51,2,1.75A6.08,6.08,0,0,1,91,13.61a4.31,4.31,0,0,1,.37,1.77,4.11,4.11,0,0,1-1.3,3.1,4.73,4.73,0,0,1-3.37,1.22,5.06,5.06,0,0,1-2.84-.8,6.33,6.33,0,0,1-2.06-2.5l2.43-1.47c.73,1.34,1.58,2,2.53,2A1.85,1.85,0,0,0,88,16.51a1.28,1.28,0,0,0,.51-1,1.78,1.78,0,0,0-.38-1,11.6,11.6,0,0,0-1.69-1.58,16.61,16.61,0,0,1-3.21-3.13,3.93,3.93,0,0,1-.73-2.2,3.57,3.57,0,0,1,1.21-2.71,4.15,4.15,0,0,1,3-1.14,4.7,4.7,0,0,1,2.17.53A7.89,7.89,0,0,1,91.11,6.17Z"/><rect class="c" x="14.69" y="3.96" width="2.89" height="2.82" rx="0.58"/></svg>