<svg xmlns="http://www.w3.org/2000/svg" viewBox="0 0 80.16 80.16"><defs><style>.cls-1{isolation:isolate;}.cls-2{fill:#9fb603;}.cls-3{fill:#bfbfbf;mix-blend-mode:multiply;}.cls-4{fill:#0f303f;}.cls-5{fill:#fff;}.cls-6{fill:#e8e8e8;}.cls-7{fill:#4b4b55;}.cls-8{fill:#6b3b55;}.cls-9{fill:#a15980;}.cls-10{fill:#f3701e;}.cls-11{fill:#14b0bf;}.cls-12{fill:#f3b01e;}.cls-13{fill:#7c7c8c;}</style></defs><g class="cls-1"><g id="Layer_2" data-name="Layer 2"><g id="Layer_1-2" data-name="Layer 1"><circle class="cls-2" cx="40.08" cy="40.08" r="40.08" transform="translate(-3.76 76.01) rotate(-84.34)"/><path class="cls-3" d="M40.08,80.16A40.08,40.08,0,0,0,71.53,15.24c-1.65.82-3.59,1.83-5.33,2.91l-.53.33H11.53V55.62L36.48,80C37.67,80.1,38.87,80.16,40.08,80.16Z"/><rect class="cls-4" x="11.53" y="18.48" width="55.73" height="37.14"/><rect class="cls-5" x="13.93" y="20.88" width="50.93" height="30.66"/><polygon class="cls-6" points="51.59 20.88 13.93 20.88 13.93 51.54 21.44 51.54 51.59 20.88"/><rect x="34.37" y="55.62" width="10.06" height="3.36"/><rect class="cls-4" x="32.19" y="58.98" width="14.4" height="3.54"/><path class="cls-7" d="M53.66,27.31S48.4,26.66,47,29.68s-2.1,8.55-3.55,8.81,10.26,2.37,14.08-6.05S53.66,27.31,53.66,27.31Z"/><path class="cls-8" d="M59.32,22.89a82.65,82.65,0,0,1,6.88-4.74,78,78,0,0,1,9.3-4.73,45.73,45.73,0,0,1-6.14,7.8c-3.12,3.07-6.23,6.09-6.23,6.09Z"/><path class="cls-9" d="M70.8,16.31a57.35,57.35,0,0,0-11.57,7.58c-4.6,4.21,1.23.53,1.23.53A77.08,77.08,0,0,1,70.8,16.31Z"/><rect class="cls-10" x="54.78" y="24.1" width="7.47" height="6.41" transform="translate(-3.93 43.73) rotate(-39.75)"/><rect class="cls-11" x="55.35" y="25.69" width="2.49" height="6.41" transform="translate(-5.39 42.87) rotate(-39.75)"/><polygon class="cls-12" points="59.23 23.15 56.07 25.73 56.82 26.61 59.89 23.98 59.23 23.15"/><path class="cls-13" d="M52.92,28.06s-3.51-.57-4.65,1.49S50.2,30.47,52.92,28.06Z"/></g></g></g></svg>