<svg xmlns="http://www.w3.org/2000/svg" viewBox="0 0 80.16 80.16"><defs><style>.cls-1{isolation:isolate;}.cls-2{fill:#ffb200;}.cls-3{fill:#bfbfbf;mix-blend-mode:multiply;}.cls-4{fill:#6b3b55;}.cls-5{fill:#804665;}.cls-6{fill:#914f73;}.cls-7{fill:#0f303f;}.cls-8{fill:#194f69;}</style></defs><g class="cls-1"><g id="Layer_2" data-name="Layer 2"><g id="Layer_1-2" data-name="Layer 1"><path class="cls-2" d="M80.16,40.08A40.08,40.08,0,1,1,40.08,0,40.07,40.07,0,0,1,80.16,40.08Z"/><path class="cls-3" d="M79.3,48.36,66.17,35.23H56l-.05,0c-.15-.21-2.11-2.17-2.36-2.36a3,3,0,0,0-1-.85l-17-9.82L21.42,14c-1.8-1-3.27-.2-3.27,1.89v36a2.26,2.26,0,0,0,1,2.12c.16.25,6.77,6.88,7,7a3.49,3.49,0,0,0-1.43,2.64,3.45,3.45,0,0,0,1.39,2.61,4.7,4.7,0,0,0,.59.59C26.8,67,36.29,76.52,40,80.16h.13A40.09,40.09,0,0,0,79.3,48.36Z"/><path class="cls-4" d="M21.42,14,52.6,32c1.81,1,1.81,2.73,0,3.77l-31.18,18c-1.8,1.05-3.27.2-3.27-1.88v-36C18.15,13.78,19.62,12.94,21.42,14Z"/><path class="cls-5" d="M35.59,22.17,21.42,14c-1.8-1-3.27-.2-3.27,1.89V34A22.33,22.33,0,0,0,35.59,22.17Z"/><path class="cls-6" d="M27.3,22.57a2.79,2.79,0,0,1-1.38,3.66,2.78,2.78,0,0,1-3.85-.71,2.78,2.78,0,0,1,1.38-3.66A2.79,2.79,0,0,1,27.3,22.57Z"/><path class="cls-7" d="M65.05,43l1.12-7.81H39l-.27,2.57h0L36.3,60a10.63,10.63,0,0,0-4.3-.86c-4,0-7.32,2-7.32,4.47S28,68.12,32,68.12c3.73,0,6.81-1.7,7.26-3.9h0a3.43,3.43,0,0,0,.06-.56v0L41.54,43h20L59.66,60a10.55,10.55,0,0,0-4.29-.86c-4,0-7.33,2-7.33,4.47s3.28,4.47,7.33,4.47c3.73,0,6.8-1.7,7.26-3.9h0a3.43,3.43,0,0,0,.06-.56v0L64.9,43Z"/><polygon class="cls-8" points="64.21 37.84 39.28 37.84 39.53 35.49 64.75 35.49 64.21 37.84"/><path class="cls-8" d="M58.51,65.57c0,.8-1.42,1.44-3.17,1.44s-3.16-.64-3.16-1.44,1.42-1.43,3.16-1.43S58.51,64.78,58.51,65.57Z"/><path class="cls-8" d="M34.73,65.57c0,.8-1.41,1.44-3.16,1.44s-3.16-.64-3.16-1.44,1.41-1.43,3.16-1.43S34.73,64.78,34.73,65.57Z"/></g></g></g></svg>