<svg xmlns="http://www.w3.org/2000/svg" viewBox="0 0 80.16 80.16"><defs><style>.cls-1{isolation:isolate;}.cls-2{fill:#f3701e;}.cls-3{fill:#bfbfbf;mix-blend-mode:multiply;}.cls-4{fill:#0f303f;}.cls-5{fill:#6b3b55;}.cls-6{fill:#804665;}.cls-7{fill:#e05600;}.cls-8{fill:#fff;}.cls-9{fill:#e8e8e8;}.cls-10{fill:#4b4b55;}.cls-11{fill:#d1d1d1;}</style></defs><g class="cls-1"><g id="Layer_2" data-name="Layer 2"><g id="Layer_1-2" data-name="Layer 1"><path class="cls-2" d="M80.16,40.08A40.08,40.08,0,1,1,40.08,0,40.07,40.07,0,0,1,80.16,40.08Z"/><path class="cls-3" d="M79.38,48,54.1,22.69c-.11-.11-.2-.23-.31-.34A21.28,21.28,0,0,0,23.7,52.45l.33.3c.08.08,20.36,20.37,26.13,26.13A40.12,40.12,0,0,0,79.38,48Z"/><path class="cls-4" d="M78.58,72.88a3.7,3.7,0,0,1,0,5.24h0a3.71,3.71,0,0,1-5.23,0l-15-15a3.72,3.72,0,0,1,0-5.24h0a3.72,3.72,0,0,1,5.24,0Z"/><path class="cls-5" d="M59.82,50.63a5.82,5.82,0,0,1,0,8.21h0a5.82,5.82,0,0,1-8.21,0L50,57.22A5.8,5.8,0,0,1,50,49h0a5.8,5.8,0,0,1,8.21,0Z"/><path class="cls-6" d="M50.7,49.73a5,5,0,0,0-.68.86,5,5,0,0,1,6.14.69l1.38,1.39a4.94,4.94,0,0,1,.69,6.14,5.73,5.73,0,0,0,.87-.69,5,5,0,0,0,0-7l-1.38-1.38A5,5,0,0,0,50.7,49.73Z"/><path class="cls-7" d="M53.79,22.35a21.28,21.28,0,1,1-30.09,0A21.29,21.29,0,0,1,53.79,22.35Z"/><path class="cls-8" d="M28.62,47.47q-.4-.34-.78-.72a13.23,13.23,0,0,1,0-18.7,14,14,0,0,1,1.68-1.42,16.45,16.45,0,0,0-.9,20.84Z"/><path class="cls-8" d="M23.7,22.35a21.28,21.28,0,1,0,30.09,0A21.29,21.29,0,0,0,23.7,22.35ZM49.87,48.53a15.73,15.73,0,1,1,0-22.25A15.74,15.74,0,0,1,49.87,48.53Z"/><path class="cls-9" d="M25.2,23.86a19.15,19.15,0,1,0,27.09,0A19.14,19.14,0,0,0,25.2,23.86ZM49.87,48.53a15.73,15.73,0,1,1,0-22.25A15.74,15.74,0,0,1,49.87,48.53Z"/><path class="cls-10" d="M75.22,75.8a1,1,0,0,1,0,1.43h0a1,1,0,0,1-1.44,0L59,62.49a1,1,0,0,1,0-1.44h0a1,1,0,0,1,1.44,0Z"/><path class="cls-11" d="M26.32,51.45a20.07,20.07,0,0,1,11.47-34.1,20.08,20.08,0,1,0,3.66,39.94A20,20,0,0,1,26.32,51.45Z"/></g></g></g></svg>