<svg xmlns="http://www.w3.org/2000/svg" viewBox="0 0 80.16 80.16"><defs><style>.cls-1{isolation:isolate;}.cls-2{fill:#14b0bf;}.cls-3{fill:#bfbfbf;mix-blend-mode:multiply;}.cls-4{fill:#0f303f;}.cls-5{fill:#fff;}.cls-6{fill:#e8e8e8;}</style></defs><g class="cls-1"><g id="Layer_2" data-name="Layer 2"><g id="Layer_1-2" data-name="Layer 1"><circle class="cls-2" cx="40.08" cy="40.08" r="40.08" transform="translate(-8.11 69.93) rotate(-76.78)"/><path class="cls-3" d="M80.16,40.08a40.49,40.49,0,0,0-.88-8.37L67.94,19.86H12.22V57L35.71,79.92a39.45,39.45,0,0,0,4.37.24A40.07,40.07,0,0,0,80.16,40.08Z"/><rect class="cls-4" x="12.22" y="19.86" width="55.73" height="37.14"/><rect class="cls-5" x="14.62" y="22.26" width="50.93" height="30.66"/><polygon class="cls-6" points="52.27 22.26 14.62 22.26 14.62 52.92 22.13 52.92 52.27 22.26"/><rect x="35.05" y="57" width="10.06" height="3.36"/><rect class="cls-4" x="32.88" y="60.36" width="14.4" height="3.54"/><path d="M28.16,33.21a1,1,0,0,1,.82,0,1.15,1.15,0,0,1,.29.2,1,1,0,0,1,.19.29.86.86,0,0,1,.08.36.91.91,0,0,1-.46.8L23.73,38l5.35,3.22a.89.89,0,0,1,.46.79.86.86,0,0,1-.27.65.92.92,0,0,1-.65.26,1,1,0,0,1-.46-.11l-6.64-4A.92.92,0,0,1,21,38a1,1,0,0,1,.49-.81Z"/><path d="M43.31,31.51,37.89,45.07a1,1,0,0,1-.84.54.9.9,0,0,1-.66-.26.93.93,0,0,1-.26-.66,1.13,1.13,0,0,1,.08-.38l5.42-13.55a1.08,1.08,0,0,1,.21-.28.85.85,0,0,1,.64-.27.87.87,0,0,1,.64.27.89.89,0,0,1,.27.65A.92.92,0,0,1,43.31,31.51Z"/><path d="M57.88,37.21a1,1,0,0,1,.49.81.92.92,0,0,1-.49.82l-6.64,4a1,1,0,0,1-.46.11.91.91,0,0,1-.65-.26.86.86,0,0,1-.27-.65.89.89,0,0,1,.46-.79L55.67,38l-5.35-3.2a.91.91,0,0,1-.46-.8.86.86,0,0,1,.07-.36,1,1,0,0,1,.49-.49,1,1,0,0,1,.82,0Z"/></g></g></g></svg>